<?xml version="1.0" encoding="UTF-8" standalone="no"?>
<!-- Generator: Adobe Illustrator 15.0.2, SVG Export Plug-In . SVG Version: 6.00 Build 0)  -->

<svg
   xmlns:dc="http://purl.org/dc/elements/1.1/"
   xmlns:cc="http://creativecommons.org/ns#"
   xmlns:rdf="http://www.w3.org/1999/02/22-rdf-syntax-ns#"
   xmlns:svg="http://www.w3.org/2000/svg"
   xmlns="http://www.w3.org/2000/svg"
   xmlns:sodipodi="http://sodipodi.sourceforge.net/DTD/sodipodi-0.dtd"
   xmlns:inkscape="http://www.inkscape.org/namespaces/inkscape"
   version="1.1"
   id="Layer_1"
   x="0px"
   y="0px"
   width="550"
   height="335.457"
   viewBox="0 0 550 335.45701"
   enable-background="new 0 0 600 356.982"
   xml:space="preserve"
   inkscape:version="0.48.1 "
   sodipodi:docname="ZZ1.svg"><metadata
   id="metadata123"><rdf:RDF><cc:Work
       rdf:about=""><dc:format>image/svg+xml</dc:format><dc:type
         rdf:resource="http://purl.org/dc/dcmitype/StillImage" /></cc:Work></rdf:RDF></metadata><defs
   id="defs121" /><sodipodi:namedview
   pagecolor="#ffffff"
   bordercolor="#666666"
   borderopacity="1"
   objecttolerance="10"
   gridtolerance="10"
   guidetolerance="10"
   inkscape:pageopacity="0"
   inkscape:pageshadow="2"
   inkscape:window-width="1280"
   inkscape:window-height="1004"
   id="namedview119"
   showgrid="false"
   fit-margin-top="0"
   fit-margin-left="0"
   fit-margin-right="0"
   fit-margin-bottom="0"
   inkscape:zoom="0.73112931"
   inkscape:cx="270.7"
   inkscape:cy="166.966"
   inkscape:window-x="-8"
   inkscape:window-y="-8"
   inkscape:window-maximized="1"
   inkscape:current-layer="Layer_1" />
<g
   id="g3"
   transform="translate(-29.300005,-10)">
	<path
   d="M 280.483,10 116.872,345.457 H 415.703 L 579.3,10 H 280.483 z m 152.595,247.345 c -5.263,-0.367 -14.996,0.219 -27.342,6.625 h -0.027 l -0.014,0.014 c -17.641,7.963 -30.463,3.791 -30.463,3.791 l -6.168,10.102 c -4.786,-3.857 -15.188,-15.527 -16.783,-26.734 11.596,2.127 31.69,-1.268 34.39,-1.758 0,0 -3.96,6.217 -5.876,9.365 10.463,-0.627 15.631,-4.813 19.005,-7.172 3.367,-2.33 2.884,-5.275 2.665,-6.516 -0.368,-2.004 -1.786,-3.408 -2.393,-3.912 l -8.65,-8.672 c 3.266,-2.357 6.367,-4.988 9.271,-7.893 2.604,-2.604 4.997,-5.371 7.157,-8.275 l 10.266,10.225 c 0.947,1.008 3.143,2.168 7.778,-0.287 l 0.116,-0.068 0.108,-0.066 c 1.159,-0.75 2.216,-1.623 3.163,-2.564 4.165,-4.172 5.058,-8.943 5.234,-10.279 l -0.271,-4.662 -9.183,4.662 c 0.716,-2.141 1.479,-4.689 2.141,-7.539 1.677,-7.17 3.04,-17.504 0.757,-27.947 3.415,0.477 6.789,1.541 10.088,3.189 3.701,1.842 7.301,4.404 10.723,7.635 3.442,3.26 6.012,6.572 7.546,8.754 l -10.062,5.029 c 0,0 1.344,5.795 1.398,8.604 0.081,4.063 -0.465,10.115 -5.836,18.486 -9.774,15.197 -9.161,22.314 -8.738,27.863 z m -105.807,20.531 -6.169,-10.102 c 0,0 -12.821,4.172 -30.457,-3.791 l -0.034,-0.014 h -0.014 c -12.358,-6.406 -22.086,-6.992 -27.341,-6.625 0.409,-5.549 1.036,-12.666 -8.739,-27.865 -5.372,-8.371 -5.924,-14.424 -5.835,-18.486 0.048,-2.809 1.397,-8.604 1.397,-8.604 l -10.068,-5.029 c 1.541,-2.182 4.104,-5.494 7.553,-8.754 3.415,-3.23 7.028,-5.793 10.716,-7.635 3.299,-1.648 6.68,-2.713 10.095,-3.189 -2.291,10.443 -0.927,20.777 0.75,27.947 0.661,2.85 1.424,5.398 2.133,7.539 l -9.175,-4.662 -0.259,4.662 c 0.164,1.336 1.063,6.107 5.215,10.279 0.954,0.941 2.018,1.814 3.169,2.564 l 0.116,0.066 0.116,0.068 c 4.622,2.455 6.83,1.295 7.778,0.287 l 10.129,-10.197 c 2.161,2.891 4.546,5.658 7.144,8.248 2.945,2.943 6.087,5.604 9.4,7.975 l -8.629,8.59 c -0.614,0.504 -2.032,1.908 -2.393,3.912 -0.225,1.24 -0.709,4.186 2.665,6.516 3.361,2.359 8.527,6.545 18.998,7.172 -1.915,-3.148 -5.869,-9.365 -5.869,-9.365 2.686,0.49 22.795,3.885 34.383,1.758 -1.594,11.208 -11.996,22.878 -16.775,26.735 z m -51.908,-160.42 3.422,-3.327 0.552,-0.518 c -0.409,0.15 -0.825,0.273 -1.234,0.396 -1.322,0.368 -2.658,0.559 -4.008,0.614 -4.492,0.136 -9.019,-1.5 -12.454,-4.922 -6.571,-6.571 -6.571,-17.218 0,-23.803 6.571,-6.571 17.232,-6.571 23.804,0 3.558,3.558 5.187,8.303 4.901,12.951 -0.116,1.786 -0.498,3.518 -1.166,5.194 l 3.96,-3.831 26.468,-25.712 11.445,11.098 -20.94,22.399 c -5.255,3.149 -10.17,6.953 -14.622,11.397 -3.885,3.899 -7.3,8.139 -10.184,12.665 l -25.084,21.431 -10.832,-10.825 25.972,-25.207 z M 405.859,98.847 c -0.293,-4.648 1.343,-9.393 4.895,-12.951 6.564,-6.571 17.232,-6.571 23.803,0 6.578,6.585 6.578,17.232 0,23.817 -3.428,3.408 -7.969,5.044 -12.453,4.908 -1.35,-0.055 -2.693,-0.246 -3.994,-0.614 -0.416,-0.123 -0.825,-0.245 -1.241,-0.396 l 0.552,0.518 3.408,3.327 25.979,25.208 -10.832,10.825 -25.119,-21.458 c -2.883,-4.526 -6.291,-8.752 -10.163,-12.638 -4.438,-4.431 -9.331,-8.234 -14.581,-11.384 l -20.953,-22.413 11.432,-11.098 26.475,25.712 3.961,3.831 c -0.678,-1.677 -1.052,-3.408 -1.169,-5.194 z m -21.478,11.602 c 9.774,5.78 18.057,13.837 24.131,23.408 6.993,11.042 11.049,24.117 11.049,38.131 0,39.414 -32.059,71.464 -71.465,71.464 -39.413,0 -71.471,-32.051 -71.471,-71.464 0,-13.987 4.042,-27.062 11.029,-38.104 6.08,-9.598 14.383,-17.668 24.185,-23.462 10.634,-6.285 23.026,-9.897 36.257,-9.897 13.238,-0.001 25.644,3.625 36.285,9.924 z"
   id="path5"
   inkscape:connector-curvature="0"
   style="fill:#002c76" />
	<polygon
   points="241.765,10 192.911,10 29.3,345.457 78.147,345.457 "
   id="polygon7"
   style="fill:#e10035" />
	<polygon
   points="280.483,10 241.765,10 78.147,345.457 116.872,345.457 "
   id="polygon9"
   style="fill:#ffffff" />
	<path
   d="m 320.154,182.691 c 0.41,5.248 1.657,9.08 3.832,11.834 v -27.622 h -2.127 c -0.123,2.645 -0.539,4.785 -0.947,6.871 -0.532,2.768 -1.037,5.386 -0.758,8.917 z"
   id="path11"
   inkscape:connector-curvature="0"
   style="fill:#ffffff" />
	<polygon
   points="401.6,151.198 405.846,147.449 405.818,147.395 400.113,147.722 "
   id="polygon13"
   style="fill:#ffffff" />
	<path
   d="m 407.604,165.404 c 0.348,0.804 1.165,0.886 1.567,0.832 1.575,-0.205 1.377,-1.704 1.228,-2.809 l -0.185,-1.445 -3.121,0.409 0.197,1.445 c 0.11,0.831 0.165,1.254 0.314,1.568 z"
   id="path15"
   inkscape:connector-curvature="0"
   style="fill:#ffffff" />
	<path
   d="m 332.745,199.91 v -33.006 h -4.376 v 31.219 c 1.37,0.736 2.842,1.283 4.376,1.787 z"
   id="path17"
   inkscape:connector-curvature="0"
   style="fill:#ffffff" />
	<polygon
   points="334.646,116.229 331.512,111.512 331.45,111.526 330.993,117.211 "
   id="polygon19"
   style="fill:#ffffff" />
	<path
   d="m 447.652,210.994 c -0.055,-2.809 -1.398,-8.604 -1.398,-8.604 l 10.062,-5.029 c -1.534,-2.182 -4.104,-5.494 -7.546,-8.754 -3.422,-3.23 -7.021,-5.793 -10.723,-7.635 -3.299,-1.648 -6.673,-2.713 -10.088,-3.189 2.283,10.443 0.92,20.777 -0.757,27.947 -0.661,2.85 -1.425,5.398 -2.141,7.539 l 9.183,-4.662 0.271,4.662 c -0.177,1.336 -1.069,6.107 -5.234,10.279 -0.947,0.941 -2.004,1.814 -3.163,2.564 l -0.108,0.066 -0.116,0.068 c -4.636,2.455 -6.831,1.295 -7.778,0.287 L 407.85,216.31 c -2.16,2.904 -4.553,5.672 -7.157,8.275 -2.903,2.904 -6.005,5.535 -9.271,7.893 l 8.65,8.672 c 0.606,0.504 2.024,1.908 2.393,3.912 0.219,1.24 0.702,4.186 -2.665,6.516 -3.374,2.359 -8.542,6.545 -19.005,7.172 1.916,-3.148 5.876,-9.365 5.876,-9.365 -2.699,0.49 -22.794,3.885 -34.39,1.758 1.596,11.207 11.997,22.877 16.783,26.734 l 6.168,-10.102 c 0,0 12.822,4.172 30.463,-3.791 l 0.014,-0.014 h 0.027 c 12.346,-6.406 22.079,-6.992 27.342,-6.625 -0.423,-5.549 -1.036,-12.666 8.738,-27.865 5.372,-8.371 5.917,-14.424 5.836,-18.486 z"
   id="path21"
   inkscape:connector-curvature="0"
   style="fill:#ffffff" />
	<path
   d="m 359.051,201.259 v -34.356 h -4.384 v 35.895 c 1.438,-0.599 2.911,-1.09 4.384,-1.539 z"
   id="path23"
   inkscape:connector-curvature="0"
   style="fill:#ffffff" />
	<path
   d="m 341.512,202.798 v -35.895 h -4.383 v 34.356 c 1.478,0.449 2.951,0.94 4.383,1.539 z"
   id="path25"
   inkscape:connector-curvature="0"
   style="fill:#ffffff" />
	<path
   d="m 348.096,207.175 c 0.695,-0.723 1.425,-1.377 2.195,-1.936 v -38.336 h -4.39 v 38.336 c 0.757,0.559 1.494,1.214 2.195,1.936 z"
   id="path27"
   inkscape:connector-curvature="0"
   style="fill:#ffffff" />
	<path
   d="m 376.037,182.691 c 0.279,-3.531 -0.232,-6.148 -0.757,-8.917 -0.409,-2.086 -0.831,-4.226 -0.954,-6.871 h -2.134 v 27.622 c 2.189,-2.754 3.422,-6.586 3.845,-11.834 z"
   id="path29"
   inkscape:connector-curvature="0"
   style="fill:#ffffff" />
	<path
   d="m 348.096,214.906 c 23.654,0 42.904,-19.25 42.904,-42.917 0,-23.653 -19.25,-42.903 -42.904,-42.903 -23.666,0 -42.902,19.25 -42.902,42.903 -0.001,23.667 19.236,42.917 42.902,42.917 z m 31.615,-68.861 c 0,0 -3.906,8.207 -3.906,19.25 0,0.559 0.014,1.091 0.041,1.609 0.307,6.067 2.216,9.502 1.705,15.911 -0.56,7.033 -2.57,11.246 -5.358,13.986 -1.309,1.295 -2.794,2.25 -4.376,3.014 -1.397,0.682 -2.877,1.213 -4.391,1.689 -1.438,0.479 -2.917,0.887 -4.375,1.35 -1.493,0.465 -2.959,0.969 -4.384,1.609 -1.548,0.709 -3.033,1.568 -4.376,2.713 -0.784,0.695 -1.514,1.445 -2.188,2.359 l -0.008,0.014 -0.014,-0.014 c -0.674,-0.914 -1.41,-1.664 -2.181,-2.359 -1.351,-1.145 -2.836,-2.004 -4.39,-2.713 -1.412,-0.641 -2.891,-1.145 -4.383,-1.609 -1.453,-0.463 -2.925,-0.871 -4.384,-1.35 -1.499,-0.477 -2.972,-1.008 -4.376,-1.689 -1.588,-0.764 -3.067,-1.719 -4.383,-3.014 -2.789,-2.74 -4.793,-6.953 -5.352,-13.986 -0.504,-6.408 1.397,-9.844 1.704,-15.911 0.027,-0.518 0.041,-1.05 0.041,-1.609 0,-11.042 -3.899,-19.25 -3.899,-19.25 h 63.233 z"
   id="path31"
   inkscape:connector-curvature="0"
   style="fill:#ffffff" />
	<path
   d="m 367.816,198.123 v -31.219 h -4.391 v 33.006 c 1.542,-0.504 3.028,-1.051 4.391,-1.787 z"
   id="path33"
   inkscape:connector-curvature="0"
   style="fill:#ffffff" />
	<polygon
   points="368.676,222.908 368.613,222.935 368.859,228.634 372.369,227.203 "
   id="polygon35"
   style="fill:#ffffff" />
	<path
   d="m 406.037,183.277 c 3.852,0.518 4.273,-2.631 4.438,-3.803 l 0.225,-1.5 -7.839,-1.078 -0.239,1.65 c -0.313,2.563 0.463,4.323 3.415,4.731 z"
   id="path37"
   inkscape:connector-curvature="0"
   style="fill:#ffffff" />
	<path
   d="m 381.19,215.642 -1.151,0.885 1.914,2.482 1.16,-0.887 c 0.668,-0.518 1.002,-0.764 1.192,-1.049 0.532,-0.723 0.185,-1.459 -0.062,-1.787 -0.96,-1.24 -2.167,-0.326 -3.053,0.356 z"
   id="path39"
   inkscape:connector-curvature="0"
   style="fill:#ffffff" />
	<path
   d="m 319.924,125.091 c 2.379,-1.418 1.574,-3.667 0.654,-5.181 -0.914,-1.541 -1.773,-2.059 -2.428,-2.332 -0.845,-0.313 -1.73,-0.027 -2.453,0.396 -2.188,1.322 -1.752,3.408 -0.621,5.303 1.037,1.745 2.653,3.136 4.848,1.814 z"
   id="path41"
   inkscape:connector-curvature="0"
   style="fill:#ffffff" />
	<path
   d="m 309.664,249.384 c 0,0 3.954,6.217 5.869,9.365 -10.471,-0.627 -15.637,-4.813 -18.998,-7.172 -3.374,-2.33 -2.89,-5.275 -2.665,-6.516 0.361,-2.004 1.779,-3.408 2.393,-3.912 l 8.629,-8.59 c -3.313,-2.371 -6.455,-5.031 -9.4,-7.975 -2.597,-2.59 -4.983,-5.357 -7.144,-8.248 l -10.129,10.197 c -0.948,1.008 -3.156,2.168 -7.778,-0.287 l -0.116,-0.068 -0.116,-0.066 c -1.152,-0.75 -2.215,-1.623 -3.169,-2.564 -4.151,-4.172 -5.051,-8.943 -5.215,-10.279 l 0.259,-4.662 9.175,4.662 c -0.709,-2.141 -1.472,-4.689 -2.133,-7.539 -1.677,-7.17 -3.041,-17.504 -0.75,-27.947 -3.415,0.477 -6.796,1.541 -10.095,3.189 -3.688,1.842 -7.301,4.404 -10.716,7.635 -3.449,3.26 -6.012,6.572 -7.553,8.754 l 10.068,5.029 c 0,0 -1.35,5.795 -1.397,8.604 -0.089,4.063 0.463,10.115 5.835,18.486 9.775,15.199 9.148,22.316 8.739,27.865 5.255,-0.367 14.983,0.219 27.341,6.625 h 0.014 l 0.034,0.014 c 17.635,7.963 30.457,3.791 30.457,3.791 l 6.169,10.102 c 4.778,-3.857 15.181,-15.527 16.775,-26.734 -11.588,2.126 -31.697,-1.268 -34.383,-1.759 z"
   id="path43"
   inkscape:connector-curvature="0"
   style="fill:#ffffff" />
	<path
   d="m 285.309,132.057 c 2.884,-4.526 6.299,-8.766 10.184,-12.665 4.451,-4.444 9.367,-8.248 14.622,-11.397 l 20.94,-22.399 -11.445,-11.098 -26.468,25.712 -3.96,3.831 c 0.668,-1.677 1.05,-3.408 1.166,-5.194 0.286,-4.648 -1.343,-9.393 -4.901,-12.951 -6.571,-6.571 -17.232,-6.571 -23.804,0 -6.571,6.585 -6.571,17.232 0,23.803 3.436,3.422 7.962,5.058 12.454,4.922 1.35,-0.055 2.686,-0.246 4.008,-0.614 0.409,-0.123 0.825,-0.245 1.234,-0.396 l -0.552,0.518 -3.422,3.327 -25.971,25.208 10.832,10.825 25.083,-21.432 z m -9.461,-31.015 c -0.777,0.791 -1.295,1.718 -1.561,2.727 -0.252,0.954 -0.266,1.963 -0.041,2.931 -0.995,0.082 -2.018,-0.014 -3,-0.273 -1.479,-0.381 -2.863,-1.159 -4.021,-2.317 -3.477,-3.477 -3.477,-9.148 0,-12.638 3.483,-3.476 9.161,-3.476 12.638,0 1.459,1.473 2.297,3.299 2.542,5.208 0.13,0.995 0.082,2.018 -0.136,3.013 -0.927,-0.354 -1.929,-0.478 -2.911,-0.354 -1.281,0.162 -2.522,0.721 -3.51,1.703 z"
   id="path45"
   inkscape:connector-curvature="0"
   style="fill:#ffffff" />
	<polygon
   points="304.436,205.335 299.017,207.093 301.334,210.093 304.484,205.39 "
   id="polygon47"
   style="fill:#ffffff" />
	<path
   d="m 376.59,74.498 -11.432,11.098 20.953,22.413 c 5.25,3.149 10.144,6.953 14.581,11.384 3.872,3.885 7.28,8.112 10.163,12.638 l 25.119,21.458 10.832,-10.825 -25.979,-25.208 -3.408,-3.327 -0.552,-0.518 c 0.416,0.15 0.825,0.273 1.241,0.396 1.301,0.368 2.645,0.559 3.994,0.614 4.484,0.136 9.025,-1.5 12.453,-4.908 6.578,-6.584 6.578,-17.232 0,-23.817 -6.57,-6.571 -17.238,-6.571 -23.803,0 -3.552,3.558 -5.188,8.303 -4.895,12.951 0.116,1.786 0.49,3.518 1.166,5.194 L 403.062,100.21 376.59,74.498 z m 37.211,22.181 c 0.232,-1.909 1.091,-3.735 2.543,-5.208 3.482,-3.476 9.141,-3.476 12.624,0 3.497,3.49 3.497,9.162 0,12.638 -1.146,1.159 -2.543,1.936 -4.015,2.317 -0.975,0.259 -2.004,0.354 -3.007,0.273 0.231,-0.968 0.212,-1.977 -0.034,-2.931 -0.259,-1.009 -0.783,-1.936 -1.561,-2.727 -0.988,-0.982 -2.229,-1.541 -3.518,-1.704 -0.968,-0.123 -1.977,0 -2.896,0.354 -0.225,-0.994 -0.265,-2.003 -0.136,-3.012 z"
   id="path49"
   inkscape:connector-curvature="0"
   style="fill:#ffffff" />
	<path
   d="m 311.839,110.421 c -9.802,5.794 -18.105,13.865 -24.185,23.462 -6.987,11.043 -11.029,24.117 -11.029,38.104 0,39.414 32.058,71.464 71.471,71.464 39.406,0 71.465,-32.051 71.465,-71.464 0,-14.015 -4.056,-27.089 -11.049,-38.131 -6.074,-9.571 -14.356,-17.628 -24.131,-23.408 -10.641,-6.298 -23.047,-9.925 -36.285,-9.925 -13.231,0.001 -25.623,3.614 -36.257,9.898 z m 16.885,-0.763 4.56,-1.213 8.664,10.906 -4.219,1.145 -1.609,-2.222 -5.392,1.459 -0.245,2.727 -3.729,1.009 1.97,-13.811 z m 19.372,16.264 c 25.398,0 46.066,20.667 46.066,46.066 0,25.398 -20.668,46.066 -46.066,46.066 -25.404,0 -46.072,-20.668 -46.072,-46.066 -10e-4,-25.398 20.667,-46.066 46.072,-46.066 z m -37.375,-5.889 c 0.676,-2.304 2.884,-3.79 3.756,-4.322 4.785,-2.863 7.962,-0.491 9.57,2.182 2.618,4.376 0.041,7.743 -2.809,9.447 -3.189,1.909 -7.115,2.072 -9.57,-2.004 -0.436,-0.736 -1.622,-2.999 -0.947,-5.303 z m -9.979,6.735 c 1.554,-1.636 3.088,-2.549 4.628,-2.618 1.567,-0.068 2.413,0.723 2.774,1.036 l -2.734,2.89 c -1.063,-0.75 -2.085,-0.382 -2.842,0.423 -1.616,1.704 -0.668,3.572 1.036,5.181 0.56,0.545 2.917,2.754 4.976,0.559 1.418,-1.486 0.573,-2.59 0.26,-2.972 l 2.768,-2.931 c 2.89,2.768 0.082,6.23 -1.166,7.553 -0.928,0.981 -2.727,2.577 -4.881,2.672 -2.127,0.109 -3.797,-1.104 -4.765,-2.018 -1.274,-1.213 -2.25,-2.74 -2.331,-4.622 -0.103,-2.072 0.872,-3.668 2.277,-5.153 z m -1.698,20.122 2.38,1.131 -1.459,3.067 -2.386,-1.131 1.465,-3.067 z m -14.301,8.235 c 1.397,-5.249 4.076,-4.786 5.398,-4.445 l -1.009,3.79 c -0.375,-0.095 -1.704,-0.477 -2.181,1.309 -0.286,1.09 0.088,1.922 0.832,2.126 0.907,0.246 1.336,-0.518 1.623,-1.036 l 1.268,-2.345 c 0.907,-1.677 1.991,-3.667 4.608,-2.972 2.754,0.736 3.306,3.64 2.399,7.021 -0.368,1.404 -1.172,3.6 -2.767,4.499 -1.261,0.723 -2.475,0.423 -3.02,0.3 l 1.002,-3.763 c 0.498,0.123 1.936,0.464 2.522,-1.758 0.082,-0.327 0.531,-1.991 -0.866,-2.372 -0.58,-0.15 -1.05,0 -1.507,0.832 l -1.677,3.095 c -0.47,0.873 -1.69,3.122 -4.281,2.427 -1.996,-0.519 -3.421,-2.673 -2.344,-6.708 z m 11.193,11.138 -0.273,3.395 -2.625,-0.205 0.259,-3.395 2.639,0.205 z m -11.915,19.877 -0.45,-3.873 7.56,-0.857 c 0.682,-0.096 1.384,-0.232 1.868,-0.668 0.647,-0.6 0.879,-1.541 0.77,-2.482 -0.279,-2.439 -2.133,-2.563 -3.401,-2.412 l -7.43,0.858 -0.429,-3.763 7.369,-0.832 c 1.404,-0.164 2.958,-0.123 3.995,0.627 1.67,1.172 2.243,3.613 2.447,5.373 0.75,6.543 -2.972,6.979 -5.051,7.225 l -7.248,0.804 z m 14.553,28.424 1.445,-2.33 -3.422,-4.418 -2.604,0.832 -2.365,-3.068 13.483,-3.463 2.883,3.723 -6.755,12.188 -2.665,-3.464 z m 15.903,11.861 c -1.99,0.408 -4.158,-0.846 -5.568,-1.881 -5.29,-3.939 -3.061,-6.967 -1.807,-8.645 l 4.362,-5.834 3.129,2.344 -4.547,6.096 c -0.401,0.545 -0.79,1.145 -0.79,1.799 -0.014,0.887 0.518,1.703 1.281,2.264 1.963,1.473 3.319,0.203 4.083,-0.832 l 4.472,-5.984 3.026,2.248 -4.431,5.945 c -0.845,1.117 -1.935,2.234 -3.21,2.48 z m 13.415,7.635 -1.281,-5.33 -4.479,3.189 -4.253,-1.582 7.293,-4.389 -2.447,-7.457 4.67,1.744 1.166,4.662 4.035,-2.727 4.172,1.541 -6.783,3.953 2.535,8.125 -4.628,-1.729 z m 12.14,2.658 -3.927,-0.6 1.943,-12.666 3.926,0.613 -1.942,12.653 z m 4.465,0.532 -0.171,-12.801 3.92,-0.041 0.143,10.279 6.258,-0.096 0.041,2.51 -10.191,0.149 z m 13.448,-0.75 -2.316,-12.596 3.919,-0.736 2.324,12.596 -3.927,0.736 z m 18.01,-5.44 -1.875,-2.018 -5.166,2.127 0.096,2.727 -3.586,1.473 0.266,-13.934 4.363,-1.785 9.938,9.762 -4.036,1.648 z m 13.674,-8.738 c -0.66,-0.477 -1.329,-1.186 -2.133,-2.004 -1.07,-1.117 -1.473,-1.527 -2.843,-0.477 l -1.296,0.994 3.055,3.967 -3.082,2.359 -7.811,-10.129 5.125,-3.941 c 1.991,-1.539 2.822,-1.99 3.961,-1.895 0.572,0.055 1.438,0.287 2.277,1.391 0.858,1.092 0.735,1.949 0.436,2.658 -0.389,0.941 -1.002,1.527 -1.281,1.814 l 0.047,0.055 c 2.189,-1.596 2.973,-0.832 4.432,0.545 0.634,0.613 1.629,1.594 2.439,2.113 l -3.326,2.55 z m 8.59,-8.549 -3.682,-2.889 -9.666,-0.818 2.761,-3.531 6.114,0.914 -2.304,-5.795 2.468,-3.135 3.156,9.393 3.559,2.781 -2.406,3.08 z m 14.628,-33.565 c -0.231,1.65 -0.675,3.805 -1.772,5.127 -1.561,1.881 -3.735,2.154 -5.609,1.895 -2.816,-0.381 -4.759,-1.648 -5.379,-4.58 -0.3,-1.486 -0.062,-3.176 0.062,-4.131 l 0.804,-5.876 12.693,1.731 -0.799,5.834 z m 0.04,-15.99 c 0.328,2.495 0.301,3.449 -0.367,4.376 -0.314,0.477 -0.961,1.104 -2.332,1.282 -1.383,0.191 -2.064,-0.354 -2.515,-0.955 -0.62,-0.818 -0.832,-1.649 -0.927,-2.018 l -0.075,0.014 c 0.286,2.686 -0.798,2.985 -2.7,3.531 -0.845,0.259 -2.181,0.627 -3.039,1.077 l -0.546,-4.158 c 0.743,-0.341 1.697,-0.559 2.802,-0.832 1.514,-0.382 2.059,-0.504 1.826,-2.236 l -0.197,-1.608 -4.955,0.654 -0.512,-3.858 12.699,-1.663 0.838,6.394 z m -3.756,-15.42 -9.652,10.062 -1.703,-4.022 1.99,-1.895 -2.175,-5.14 -2.733,0.123 -1.506,-3.559 13.939,0.082 1.84,4.349 z m -11.758,-19.617 -5.938,4.744 c -0.545,0.423 -1.057,0.914 -1.234,1.554 -0.23,0.859 0.076,1.772 0.662,2.522 1.541,1.909 3.162,1.036 4.164,0.218 l 5.842,-4.663 2.353,2.945 -5.788,4.622 c -1.097,0.886 -2.439,1.69 -3.721,1.595 -2.031,-0.109 -3.832,-1.868 -4.929,-3.245 -4.117,-5.126 -1.192,-7.512 0.442,-8.807 l 5.706,-4.54 2.441,3.055 z m -21.432,-9.434 c 0.887,-1.254 2.536,-2.727 4.643,-2.958 2.182,-0.205 4.321,0.968 5.705,1.936 1.786,1.254 3.006,2.645 3.313,4.158 0.252,1.377 -0.34,2.25 -0.682,2.781 l -3.21,-2.263 c 0.6,-1.2 -0.123,-2.181 -0.989,-2.781 -2.174,-1.527 -4.185,-0.341 -5.418,1.404 -1.738,2.454 -0.988,4.513 0.927,5.862 0.579,0.409 1.213,0.736 1.874,1.063 l 1.432,-2.031 -2.42,-1.704 1.397,-1.991 5.392,3.804 -3.946,5.59 c -1.915,-0.805 -3.756,-1.772 -5.446,-2.958 -1.227,-0.886 -2.822,-2.25 -3.504,-4.104 -0.751,-2.018 -0.247,-4.145 0.932,-5.808 z m -18.574,-12.598 12.167,2.931 -0.601,2.454 -4.226,-1.009 -2.393,9.979 -3.797,-0.913 2.399,-9.979 -4.138,-1.009 0.589,-2.454 z m -3.791,3.395 h -3.919 c 0,-0.395 0.014,-1.772 -1.841,-1.772 -1.117,0 -1.84,0.586 -1.834,1.35 0,0.94 0.853,1.172 1.412,1.322 l 2.617,0.614 c 1.84,0.436 4.056,0.968 4.056,3.681 0.007,2.849 -2.665,4.131 -6.155,4.145 -1.452,0 -3.783,-0.205 -5.059,-1.513 -1.029,-1.036 -1.049,-2.291 -1.07,-2.85 h 3.887 c 0.02,0.518 0.055,1.991 2.352,1.991 0.334,0 2.072,-0.014 2.072,-1.473 0,-0.586 -0.279,-1.009 -1.2,-1.227 l -3.429,-0.818 c -0.968,-0.231 -3.449,-0.832 -3.456,-3.503 -0.007,-2.072 1.69,-4.022 5.862,-4.022 5.446,-10e-4 5.686,2.698 5.705,4.075 z"
   id="path51"
   inkscape:connector-curvature="0"
   style="fill:#ffffff" />
	<path
   d="m 302.023,171.988 c 0,25.398 20.668,46.066 46.072,46.066 25.398,0 46.066,-20.668 46.066,-46.066 0,-25.398 -20.668,-46.066 -46.066,-46.066 -25.404,0 -46.072,20.668 -46.072,46.066 z m 46.073,-42.903 c 23.654,0 42.904,19.25 42.904,42.903 0,23.667 -19.25,42.917 -42.904,42.917 -23.666,0 -42.902,-19.25 -42.902,-42.917 -0.001,-23.653 19.236,-42.903 42.902,-42.903 z"
   id="path53"
   inkscape:connector-curvature="0"
   style="fill:#002c76" />
	<path
   d="m 282.269,99.692 c 0.218,-0.996 0.266,-2.018 0.136,-3.013 -0.245,-1.909 -1.083,-3.735 -2.542,-5.208 -3.477,-3.476 -9.154,-3.476 -12.638,0 -3.477,3.49 -3.477,9.162 0,12.638 1.159,1.159 2.542,1.936 4.021,2.317 0.982,0.259 2.004,0.354 3,0.273 -0.225,-0.968 -0.211,-1.977 0.041,-2.931 0.266,-1.009 0.784,-1.936 1.561,-2.727 0.988,-0.982 2.229,-1.541 3.51,-1.704 0.981,-0.122 1.984,10e-4 2.911,0.355 z"
   id="path55"
   inkscape:connector-curvature="0"
   style="fill:#002c76" />
	<path
   d="m 416.834,99.338 c 1.289,0.164 2.529,0.722 3.518,1.704 0.777,0.791 1.302,1.718 1.561,2.727 0.246,0.954 0.266,1.963 0.034,2.931 1.003,0.082 2.032,-0.014 3.007,-0.273 1.472,-0.381 2.869,-1.159 4.015,-2.317 3.497,-3.477 3.497,-9.148 0,-12.638 -3.483,-3.476 -9.142,-3.476 -12.624,0 -1.452,1.473 -2.311,3.299 -2.543,5.208 -0.129,1.009 -0.089,2.018 0.137,3.013 0.918,-0.355 1.927,-0.478 2.895,-0.355 z"
   id="path57"
   inkscape:connector-curvature="0"
   style="fill:#002c76" />
	<path
   d="m 335.621,200.794 c 0.512,0.15 1.01,0.314 1.508,0.465 v -34.356 h -4.384 v 33.006 c 0.948,0.327 1.901,0.6 2.876,0.885 z"
   id="path59"
   inkscape:connector-curvature="0"
   style="fill:#e10035" />
	<path
   d="m 325.479,196.105 c 0.893,0.818 1.854,1.459 2.891,2.018 v -31.219 h -4.383 v 27.622 c 0.455,0.585 0.947,1.116 1.492,1.579 z"
   id="path61"
   inkscape:connector-curvature="0"
   style="fill:#e10035" />
	<path
   d="m 345.901,205.24 v -38.336 h -4.39 v 35.895 c 1.541,0.642 3.013,1.431 4.39,2.441 z"
   id="path63"
   inkscape:connector-curvature="0"
   style="fill:#e10035" />
	<path
   d="m 370.707,196.105 c 0.545,-0.463 1.043,-0.994 1.485,-1.58 v -27.622 h -4.376 v 31.219 c 1.03,-0.558 2.004,-1.199 2.891,-2.017 z"
   id="path65"
   inkscape:connector-curvature="0"
   style="fill:#e10035" />
	<path
   d="m 360.563,200.794 c 0.968,-0.285 1.937,-0.559 2.862,-0.885 v -33.006 h -4.375 v 34.356 c 0.512,-0.15 1.009,-0.314 1.513,-0.465 z"
   id="path67"
   inkscape:connector-curvature="0"
   style="fill:#e10035" />
	<path
   d="m 354.667,202.798 v -35.895 h -4.376 v 38.336 c 1.377,-1.009 2.85,-1.798 4.376,-2.441 z"
   id="path69"
   inkscape:connector-curvature="0"
   style="fill:#e10035" />
	<path
   d="m 320.38,165.294 c 0,0.559 -0.014,1.091 -0.041,1.609 -0.307,6.067 -2.208,9.502 -1.704,15.911 0.559,7.033 2.563,11.246 5.352,13.986 1.315,1.295 2.795,2.25 4.383,3.014 1.404,0.682 2.877,1.213 4.376,1.689 1.459,0.479 2.931,0.887 4.384,1.35 1.492,0.465 2.971,0.969 4.383,1.609 1.554,0.709 3.039,1.568 4.39,2.713 0.771,0.695 1.507,1.445 2.181,2.359 l 0.014,0.014 0.008,-0.014 c 0.674,-0.914 1.403,-1.664 2.188,-2.359 1.343,-1.145 2.828,-2.004 4.376,-2.713 1.425,-0.641 2.891,-1.145 4.384,-1.609 1.458,-0.463 2.938,-0.871 4.375,-1.35 1.514,-0.477 2.993,-1.008 4.391,-1.689 1.582,-0.764 3.067,-1.719 4.376,-3.014 2.788,-2.74 4.799,-6.953 5.358,-13.986 0.511,-6.408 -1.398,-9.844 -1.705,-15.911 -0.027,-0.518 -0.041,-1.05 -0.041,-1.609 0,-11.042 3.906,-19.25 3.906,-19.25 h -63.23 c -0.004,10e-4 3.896,8.208 3.896,19.25 z m 1.479,1.609 h 2.127 4.383 4.376 4.384 4.383 4.39 4.39 4.376 4.384 4.375 4.391 4.376 2.134 c 0.123,2.645 0.545,4.785 0.954,6.871 0.524,2.768 1.036,5.385 0.757,8.917 -0.423,5.248 -1.656,9.08 -3.845,11.834 -0.442,0.586 -0.94,1.117 -1.485,1.58 -0.887,0.818 -1.861,1.459 -2.891,2.018 -1.363,0.736 -2.85,1.283 -4.391,1.787 -0.926,0.326 -1.895,0.6 -2.862,0.885 -0.505,0.15 -1.002,0.314 -1.513,0.465 -1.473,0.449 -2.945,0.939 -4.384,1.539 -1.526,0.643 -2.999,1.432 -4.376,2.441 -0.771,0.559 -1.5,1.213 -2.195,1.936 -0.701,-0.723 -1.438,-1.377 -2.194,-1.936 -1.377,-1.01 -2.85,-1.799 -4.39,-2.441 -1.432,-0.6 -2.904,-1.09 -4.383,-1.539 -0.498,-0.15 -0.996,-0.314 -1.508,-0.465 -0.975,-0.285 -1.928,-0.559 -2.876,-0.885 -1.534,-0.504 -3.006,-1.051 -4.376,-1.787 -1.036,-0.559 -1.998,-1.199 -2.891,-2.018 -0.545,-0.463 -1.036,-0.994 -1.492,-1.58 -2.175,-2.754 -3.422,-6.586 -3.832,-11.834 -0.279,-3.531 0.226,-6.148 0.758,-8.917 0.407,-2.086 0.823,-4.226 0.946,-6.871 z"
   id="path71"
   inkscape:connector-curvature="0"
   style="fill:#002c76" />
	<path
   d="m 296.317,178.111 c -0.204,-1.76 -0.777,-4.2 -2.447,-5.373 -1.036,-0.75 -2.59,-0.791 -3.995,-0.627 l -7.369,0.832 0.429,3.763 7.43,-0.858 c 1.268,-0.15 3.122,-0.027 3.401,2.412 0.109,0.941 -0.123,1.883 -0.77,2.482 -0.484,0.436 -1.186,0.572 -1.868,0.668 l -7.56,0.857 0.45,3.873 7.246,-0.805 c 2.082,-0.246 5.803,-0.681 5.053,-7.224 z"
   id="path73"
   inkscape:connector-curvature="0"
   style="fill:#002c76" />
	<polygon
   points="293.298,166.058 293.039,169.453 295.663,169.657 295.936,166.263 "
   id="polygon75"
   style="fill:#002c76" />
	<path
   d="m 287.088,161.832 c 2.59,0.695 3.811,-1.554 4.281,-2.427 l 1.677,-3.095 c 0.457,-0.832 0.927,-0.982 1.507,-0.832 1.397,0.381 0.947,2.045 0.866,2.372 -0.586,2.222 -2.025,1.881 -2.522,1.758 l -1.002,3.763 c 0.545,0.123 1.759,0.422 3.02,-0.3 1.595,-0.899 2.399,-3.095 2.767,-4.499 0.907,-3.381 0.354,-6.285 -2.399,-7.021 -2.617,-0.695 -3.701,1.295 -4.608,2.972 l -1.268,2.345 c -0.287,0.518 -0.716,1.282 -1.623,1.036 -0.743,-0.204 -1.118,-1.036 -0.832,-2.126 0.477,-1.786 1.806,-1.404 2.181,-1.309 l 1.009,-3.79 c -1.322,-0.341 -4.001,-0.804 -5.398,4.445 -1.078,4.036 0.347,6.19 2.344,6.708 z"
   id="path77"
   inkscape:connector-curvature="0"
   style="fill:#002c76" />
	<polygon
   points="299.964,151.089 301.424,148.021 299.044,146.89 297.579,149.958 "
   id="polygon79"
   style="fill:#002c76" />
	<path
   d="m 305.561,138.56 c 2.154,-0.095 3.953,-1.69 4.881,-2.672 1.248,-1.323 4.056,-4.785 1.166,-7.553 l -2.768,2.931 c 0.313,0.381 1.158,1.486 -0.26,2.972 -2.059,2.195 -4.416,-0.014 -4.976,-0.559 -1.704,-1.609 -2.652,-3.477 -1.036,-5.181 0.757,-0.805 1.779,-1.172 2.842,-0.423 l 2.734,-2.89 c -0.361,-0.313 -1.207,-1.104 -2.774,-1.036 -1.54,0.068 -3.074,0.981 -4.628,2.618 -1.404,1.486 -2.379,3.081 -2.277,5.153 0.082,1.881 1.057,3.408 2.331,4.622 0.968,0.914 2.638,2.127 4.765,2.018 z"
   id="path81"
   inkscape:connector-curvature="0"
   style="fill:#002c76" />
	<path
   d="m 321.238,127.34 c 2.85,-1.704 5.427,-5.071 2.809,-9.447 -1.608,-2.672 -4.785,-5.044 -9.57,-2.182 -0.872,0.532 -3.08,2.018 -3.756,4.322 -0.675,2.304 0.512,4.567 0.947,5.303 2.455,4.076 6.381,3.913 9.57,2.004 z m -5.541,-9.366 c 0.723,-0.422 1.608,-0.709 2.453,-0.396 0.654,0.273 1.514,0.791 2.428,2.332 0.92,1.513 1.725,3.763 -0.654,5.181 -2.195,1.322 -3.811,-0.068 -4.848,-1.813 -1.131,-1.896 -1.567,-3.982 0.621,-5.304 z"
   id="path83"
   inkscape:connector-curvature="0"
   style="fill:#002c76" />
	<path
   d="m 330.728,119.733 5.392,-1.459 1.609,2.222 4.219,-1.145 -8.664,-10.906 -4.56,1.213 -1.97,13.81 3.729,-1.009 0.245,-2.726 z m 0.722,-8.207 0.062,-0.014 3.135,4.717 -3.653,0.982 0.456,-5.685 z"
   id="path85"
   inkscape:connector-curvature="0"
   style="fill:#002c76" />
	<path
   d="m 342.009,110.49 c 0.007,2.672 2.488,3.272 3.456,3.503 l 3.429,0.818 c 0.921,0.218 1.2,0.641 1.2,1.227 0,1.459 -1.738,1.473 -2.072,1.473 -2.297,0 -2.332,-1.473 -2.352,-1.991 h -3.887 c 0.021,0.559 0.041,1.813 1.07,2.85 1.275,1.309 3.606,1.513 5.059,1.513 3.49,-0.014 6.162,-1.295 6.155,-4.145 0,-2.713 -2.216,-3.245 -4.056,-3.681 l -2.617,-0.614 c -0.56,-0.15 -1.412,-0.382 -1.412,-1.322 -0.006,-0.764 0.717,-1.35 1.834,-1.35 1.854,0 1.841,1.377 1.841,1.772 h 3.919 c -0.02,-1.377 -0.259,-4.076 -5.705,-4.076 -4.172,0.001 -5.869,1.95 -5.862,4.023 z"
   id="path87"
   inkscape:connector-curvature="0"
   style="fill:#002c76" />
	<polygon
   points="368.934,112.535 369.534,110.081 357.367,107.149 356.78,109.604 360.918,110.612 358.519,120.592 362.315,121.505 364.708,111.526 "
   id="polygon89"
   style="fill:#002c76" />
	<path
   d="m 378.512,129.658 c 1.69,1.186 3.531,2.154 5.446,2.958 l 3.946,-5.59 -5.392,-3.804 -1.397,1.991 2.42,1.704 -1.432,2.031 c -0.661,-0.327 -1.295,-0.654 -1.874,-1.063 -1.915,-1.35 -2.665,-3.408 -0.927,-5.862 1.233,-1.745 3.244,-2.931 5.418,-1.404 0.866,0.6 1.589,1.581 0.989,2.781 l 3.21,2.263 c 0.342,-0.532 0.934,-1.404 0.682,-2.781 -0.307,-1.513 -1.526,-2.904 -3.313,-4.158 -1.384,-0.968 -3.523,-2.141 -5.705,-1.936 -2.106,0.232 -3.756,1.704 -4.643,2.958 -1.18,1.663 -1.684,3.79 -0.934,5.808 0.683,1.854 2.279,3.217 3.506,4.104 z"
   id="path91"
   inkscape:connector-curvature="0"
   style="fill:#002c76" />
	<path
   d="m 388.784,139.474 c 1.097,1.377 2.897,3.136 4.929,3.245 1.281,0.095 2.624,-0.709 3.721,-1.595 l 5.788,-4.622 -2.353,-2.945 -5.842,4.663 c -1.002,0.818 -2.623,1.69 -4.164,-0.218 -0.586,-0.75 -0.893,-1.663 -0.662,-2.522 0.178,-0.641 0.689,-1.131 1.234,-1.554 l 5.938,-4.744 -2.44,-3.054 -5.706,4.54 c -1.635,1.294 -4.56,3.68 -0.443,8.806 z"
   id="path93"
   inkscape:connector-curvature="0"
   style="fill:#002c76" />
	<path
   d="m 394.857,147.926 2.733,-0.123 2.175,5.14 -1.99,1.895 1.703,4.022 9.652,-10.062 -1.84,-4.349 -13.939,-0.082 1.506,3.559 z m 10.961,-0.531 0.027,0.054 -4.246,3.75 -1.486,-3.477 5.705,-0.327 z"
   id="path95"
   inkscape:connector-curvature="0"
   style="fill:#002c76" />
	<path
   d="m 399.861,163.345 4.955,-0.654 0.197,1.608 c 0.232,1.731 -0.313,1.854 -1.826,2.236 -1.104,0.273 -2.059,0.491 -2.802,0.832 l 0.546,4.158 c 0.858,-0.45 2.194,-0.818 3.039,-1.077 1.902,-0.545 2.986,-0.845 2.7,-3.531 l 0.075,-0.014 c 0.095,0.368 0.307,1.2 0.927,2.018 0.45,0.6 1.132,1.146 2.515,0.955 1.371,-0.177 2.018,-0.805 2.332,-1.282 0.668,-0.927 0.695,-1.881 0.367,-4.376 l -0.838,-6.394 -12.699,1.663 0.512,3.858 z m 10.354,-1.363 0.185,1.445 c 0.149,1.104 0.348,2.604 -1.228,2.809 -0.402,0.055 -1.22,-0.027 -1.567,-0.832 -0.149,-0.313 -0.204,-0.736 -0.313,-1.568 l -0.197,-1.445 3.12,-0.409 z"
   id="path97"
   inkscape:connector-curvature="0"
   style="fill:#002c76" />
	<path
   d="m 400.147,178.519 c -0.123,0.955 -0.361,2.645 -0.062,4.131 0.62,2.932 2.563,4.199 5.379,4.58 1.874,0.26 4.049,-0.014 5.609,-1.895 1.098,-1.322 1.541,-3.477 1.772,-5.127 l 0.798,-5.834 -12.693,-1.731 -0.803,5.876 z m 2.474,0.027 0.239,-1.65 7.839,1.078 -0.225,1.5 c -0.164,1.172 -0.586,4.32 -4.438,3.803 -2.951,-0.408 -3.727,-2.168 -3.415,-4.731 z"
   id="path99"
   inkscape:connector-curvature="0"
   style="fill:#002c76" />
	<path
   d="m 305.111,202.117 -13.483,3.463 2.365,3.068 2.604,-0.832 3.422,4.418 -1.445,2.33 2.666,3.463 6.755,-12.188 -2.884,-3.722 z m -3.777,7.976 -2.317,-3 5.418,-1.758 0.049,0.055 -3.15,4.703 z"
   id="path101"
   inkscape:connector-curvature="0"
   style="fill:#002c76" />
	<path
   d="m 319.092,215.751 -4.472,5.984 c -0.764,1.035 -2.12,2.305 -4.083,0.832 -0.764,-0.561 -1.295,-1.377 -1.281,-2.264 0,-0.654 0.389,-1.254 0.79,-1.799 l 4.547,-6.096 -3.129,-2.344 -4.362,5.834 c -1.254,1.678 -3.483,4.705 1.807,8.645 1.41,1.035 3.578,2.289 5.568,1.881 1.275,-0.246 2.365,-1.363 3.211,-2.48 l 4.431,-5.945 -3.027,-2.248 z"
   id="path103"
   inkscape:connector-curvature="0"
   style="fill:#002c76" />
	<polygon
   points="327.395,220.236 322.725,218.492 325.172,225.949 317.879,230.337 322.132,231.919 326.61,228.73 327.892,234.06 332.52,235.791 329.984,227.666 336.768,223.712 332.596,222.171 328.561,224.898 "
   id="polygon105"
   style="fill:#002c76" />
	<polygon
   points="338.049,223.453 336.105,236.119 340.032,236.718 341.975,224.066 "
   id="polygon107"
   style="fill:#002c76" />
	<polygon
   points="344.497,237.25 354.688,237.101 354.646,234.591 348.389,234.687 348.246,224.408 344.326,224.449 "
   id="polygon109"
   style="fill:#002c76" />
	<polygon
   points="359.548,223.167 355.629,223.904 357.945,236.5 361.872,235.763 "
   id="polygon111"
   style="fill:#002c76" />
	<path
   d="m 365.689,221.435 -0.266,13.934 3.586,-1.473 -0.096,-2.727 5.166,-2.127 1.875,2.018 4.035,-1.648 -9.938,-9.762 -4.362,1.785 z m 3.17,7.199 -0.246,-5.699 0.063,-0.027 3.693,4.295 -3.51,1.431 z"
   id="path113"
   inkscape:connector-curvature="0"
   style="fill:#002c76" />
	<path
   d="m 386.084,217.115 -0.047,-0.055 c 0.279,-0.287 0.893,-0.873 1.281,-1.814 0.3,-0.709 0.423,-1.566 -0.436,-2.658 -0.839,-1.104 -1.705,-1.336 -2.277,-1.391 -1.139,-0.096 -1.97,0.355 -3.961,1.895 l -5.125,3.941 7.811,10.129 3.082,-2.359 -3.055,-3.967 1.296,-0.994 c 1.37,-1.051 1.772,-0.641 2.843,0.477 0.804,0.818 1.473,1.527 2.133,2.004 l 3.326,-2.549 c -0.811,-0.52 -1.806,-1.5 -2.439,-2.113 -1.459,-1.378 -2.243,-2.142 -4.432,-0.546 z m -1.778,-0.041 c -0.19,0.285 -0.524,0.531 -1.192,1.049 l -1.16,0.887 -1.914,-2.482 1.151,-0.885 c 0.886,-0.682 2.093,-1.596 3.054,-0.355 0.245,0.327 0.593,1.063 0.061,1.786 z"
   id="path115"
   inkscape:connector-curvature="0"
   style="fill:#002c76" />
	<polygon
   points="387.632,206.535 384.871,210.066 394.537,210.884 398.219,213.773 400.625,210.693 397.066,207.912 393.91,198.519 391.442,201.654 393.746,207.449 "
   id="polygon117"
   style="fill:#002c76" />
</g>
</svg>